<?xml version="1.0" encoding="utf-8"?>
<!-- Generator: Adobe Illustrator 12.0.1, SVG Export Plug-In . SVG Version: 6.00 Build 51448)  -->
<!DOCTYPE svg PUBLIC "-//W3C//DTD SVG 1.1//EN" "http://www.w3.org/Graphics/SVG/1.1/DTD/svg11.dtd" [
	<!ENTITY ns_svg "http://www.w3.org/2000/svg">
	<!ENTITY ns_xlink "http://www.w3.org/1999/xlink">
]>
<svg  version="1.1" id="Layer_1" xmlns="&ns_svg;" xmlns:xlink="&ns_xlink;" width="2311.25" height="760.018"
	 viewBox="0 0 2311.25 760.018" overflow="visible" enable-background="new 0 0 2311.25 760.018" xml:space="preserve">
<g>
	<path fill="none" stroke="#A71F3C" stroke-width="9.417" d="M285.626,74.829c-8.939,0-16.164-7.177-16.164-16.009
		c0-8.829,7.225-16.004,16.164-16.004c8.918,0,16.143,7.175,16.143,16.004C301.77,67.652,294.545,74.829,285.626,74.829z"/>
	<path fill="none" stroke="#A71F3C" stroke-width="14.5098" d="M193.911,502.795V281.186l-186.65,97.62v224.641l277.744,145.419
		l277.729-145.419V378.806l-186.7-97.62v221.608l-91.029,48.276L193.911,502.795L193.911,502.795z M7.226,62.935v286.457
		l186.736-98.219V66.861 M375.188,66.841h188.288L452.738,7.238H115.831L5.443,66.841h188.288 M562.771,62.935v286.457
		l-186.735-97.669V66.861 M193.963,67.603v183.395l46.157-23.971v-85.356c0-24.521,20.105-44.41,44.886-44.41
		c24.767,0,44.872,19.89,44.872,44.41l-0.141,85.888l46.298,24.25l0.071-184.052l-91.101-47.585L193.963,67.603L193.963,67.603z"/>
	<path d="M599.99,61.524c22.453,2.737,40.524-5.475,60.785,2.737c-7.121,7.121-24.642,4.928-21.356,20.811l1.096,164.828
		c3.285,13.146,12.594,25.739,25.188,32.858c21.908,8.764,48.191,11.502,69.002-2.188c16.975-10.957,25.191-27.932,24.642-47.094
		V76.855c0.55-14.781-27.927-1.642-15.879-16.429c16.429,1.097,34.495-2.188,49.282,2.739c-3.83,8.217-21.901,2.739-20.811,16.975
		l-1.642,162.095c-3.285,17.525-9.855,36.143-27.927,45.452c-30.666,16.975-77.214,17.525-105.141-4.929
		c-15.883-13.144-19.714-31.215-21.355-50.379V77.953C616.419,63.717,589.04,74.668,599.99,61.524L599.99,61.524z"/>
	<path d="M803.7,60.427c10.955-2.188,23.549-0.546,35.051-1.092c45.447,59.688,84.876,121.569,129.782,181.808l2.193-3.836V73.026
		c-2.193-12.048-21.362-1.644-18.623-13.691c16.43-1.642,35.598-2.739,50.93,1.092c-2.738,8.763-20.265,2.193-18.617,16.429
		l-2.739,217.405c-16.429,10.401-9.309-14.24-18.071-19.713c-41.07-57.5-79.953-116.642-122.666-171.953
		c-3.835,58.597-3.835,120.478,0,180.165c3.831,9.31,16.976,2.189,17.525,11.502c-16.429,1.644-34.5,1.644-50.93,0
		c1.643-8.763,18.617-2.737,19.714-14.785V81.789c-5.478-8.763-14.236-14.787-23.549-17.526V60.427L803.7,60.427z"/>
	<path d="M1042.461,280.571l1.097-203.716c1.643-15.331-35.598-6.023-13.69-17.521c39.429,0.546,75.021-1.096,113.903,1.092
		c-0.551,8.217-13.69,3.836-15.883,12.6c15.883,63.522,40.524,124.308,62.977,185.093l4.928-4.928l60.239-176.335
		c-0.551-3.829-2.739-7.666-6.024-10.404c-4.933,1.096-8.763-0.546-12.047-3.285l1.092-3.831h179.073
		c2.734,10.406,12.593,20.806,7.666,30.666c-16.979-31.217-56.954-21.908-88.169-21.908l-7.116,8.763l-1.097,73.929
		c13.145,10.952,33.404-0.546,50.38,4.929c2.193,1.096,3.835,4.381,1.096,6.023c-15.331,7.12-39.427-4.382-50.379,9.86
		l-1.097,104.042c0.546,5.479,7.121,9.309,12.049,9.859c31.215-4.381,75.02,13.145,89.26-24.642h6.025
		c-2.74,12.048-6.025,23.546-13.69,33.404c-45.452-0.551-91.45,1.092-135.812-1.096c0.552-12.594,20.812-0.546,19.715-16.43
		l-1.092-206.449c-7.671-4.928-18.071-6.024-27.385-3.836l-10.951,12.599l-75.572,215.212c-2.188,2.734-4.927,4.382-8.758,3.831
		l-6.023-8.763l-73.929-212.474c-6.57-10.404-20.811-11.496-32.308-8.763l-4.932,6.024v206.454
		c1.642,8.212,12.046,7.115,18.621,8.758v4.932c-20.265,1.092-45.452,3.831-62.977-2.738
		C1027.129,284.402,1039.722,291.523,1042.461,280.571L1042.461,280.571z"/>
	<path d="M1460.292,279.475l1.097-189.475c0.546-10.406-14.787-3.285-13.69-13.146c37.786-22.452,89.261-29.568,128.689-6.568
		c17.521,15.331,23.544,37.234,18.617,60.784c-3.83,15.332-15.332,32.307-31.211,38.331l-29.573,8.763l71.735,101.311
		c5.478,9.854,18.623,4.927,23.55,13.689c-12.048,3.831-27.927,2.188-40.524,1.097c-28.478-41.071-61.331-79.407-84.33-122.665
		c25.187-2.194,52.021-7.121,64.615-31.763c6.024-16.975,4.927-39.429-3.831-54.762c-12.048-14.24-27.38-21.356-46.002-19.713
		c-9.854,1.092-20.261,2.188-28.473,8.758l-6.023,10.955l-2.193,190.567c0.551,6.023,4.927,10.957,10.951,12.048
		c4.382-0.546,7.12,1.643,10.956,2.738v3.836c-20.811,1.091-44.359,2.734-64.074-1.097
		C1443.315,284.402,1458.648,290.426,1460.292,279.475L1460.292,279.475z"/>
	<path d="M1629.502,248.259c12.594,16.43,28.478,33.955,49.283,38.338c18.071,3.829,36.144,0,49.833-10.957
		c11.502-12.048,16.43-26.83,14.787-44.355c-16.976-52.022-78.857-59.142-105.141-104.048c-6.574-17.521-4.381-39.975,7.116-54.21
		c22.452-26.289,61.335-17.526,90.358-12.6c4.927,0,8.212-7.666,12.594-4.927c2.192,14.787,11.502,29.573,6.023,44.355
		c-12.594-13.14-24.642-30.114-43.259-34.495c-15.333-2.194-33.404-2.74-44.355,9.854c-12.048,9.309-12.599,24.642-9.86,38.331
		c30.12,48.742,127.048,63.524,106.237,138.55c-6.023,22.453-27.926,40.524-50.93,44.355c-22.999,5.478-43.26-3.831-65.161-6.024
		c-4.933,1.644-4.933,11.502-11.502,6.024c-3.284-15.333-8.213-29.568-9.859-45.452L1629.502,248.259L1629.502,248.259z"/>
	<path d="M1792.696,276.735V70.286c-2.739-9.309-26.289-0.546-14.787-12.048c19.163-1.096,44.355-3.836,59.142,2.188
		c-4.927,6.575-19.167,1.648-20.811,13.691c-1.642,65.165-1.642,144.022,0,207.545c4.382,6.024,12.594,4.382,18.618,6.024
		c1.097,7.665-7.666,6.023-12.594,6.574c-16.429-1.097-34.501,2.188-49.282-2.738
		C1775.716,282.759,1791.599,289.329,1792.696,276.735L1792.696,276.735z"/>
	<path d="M1855.663,56.595l157.167,2.739c3.285,12.048,11.497,23.545,9.854,35.593c-9.309-1.643-9.854-13.139-18.617-18.072
		c-12.048-14.781-32.858-8.763-50.93-10.404l-9.855,10.404c0,67.906-4.381,137.999-1.096,204.808
		c4.381,7.666,22.998,0,17.525,11.502c-21.356-0.546-42.713,0.546-62.978-1.643c2.192-10.951,24.642-2.193,21.906-19.714
		l1.644-197.691c-10.956-11.498-32.312-9.855-47.095-6.024c-13.69,1.647-20.265,16.429-28.478,25.737l-4.927-2.188
		C1843.07,79.049,1846.901,65.905,1855.663,56.595L1855.663,56.595z"/>
	<path d="M2036.378,22.095c6.574,0.55,15.883,1.642,16.975,9.859c1.647,8.757-1.092,17.521-9.854,19.714
		c-8.212,1.643-17.526-1.097-19.714-9.859C2021.595,32.501,2027.615,23.737,2036.378,22.095L2036.378,22.095z"/>
	<path d="M2141.524,280.571l-63.523-210.285c-3.285-4.381-2.74-14.236-10.957-13.69c-24.642,73.378-49.283,146.211-73.924,219.043
		l-11.503,10.957c-2.737,2.188-10.404,0.546-8.211,6.568l38.331,2.188l4.928-3.83c-1.643-5.479-11.498-3.285-13.689-9.86
		c6.573-24.641,9.858-50.925,25.737-71.735c20.265,0,38.883,0,60.784,0l7.121,4.928c7.665,21.906,17.525,42.712,18.617,66.808
		c-2.74,8.217-12.048,4.934-18.617,7.667v4.932c20.259,1.644,44.354,1.644,62.978,0
		C2158.499,286.044,2145.354,290.425,2141.524,280.571L2141.524,280.571z M2087.854,200.072l-58.045-1.097l31.216-96.381
		c12.043,29.573,20.261,63.522,30.665,95.285L2087.854,200.072L2087.854,200.072z"/>
	<path d="M2093.329,22.095c9.308-2.188,18.07,4.381,19.714,12.594c-0.552,6.574-3.285,14.241-9.86,16.979
		c-8.212,1.091-16.429-0.551-20.26-8.217C2079.087,34.689,2084.565,24.835,2093.329,22.095L2093.329,22.095z"/>
	<path d="M2134.951,58.239l156.07,1.096c6.023,11.497,11.502,24.642,10.95,37.235c-10.95-4.928-14.781-22.453-28.471-26.283
		c-15.333-1.098-42.168-9.86-50.386,7.666l-2.733,201.522c2.188,10.95,27.38,3.831,17.521,14.786h-59.689l-3.835-3.836
		c5.479-7.666,19.714,0,22.453-12.594l3.836-198.782c-0.551-7.12-8.217-12.048-14.787-12.599
		c-16.976-0.545-32.858,0.551-45.998,8.764c-7.671,6.022-9.858,20.811-19.714,18.616
		C2121.261,80.692,2126.188,67.548,2134.951,58.239L2134.951,58.239z"/>
	<path d="M822.038,545.612c10.404,3.836,16.975,17.526,26.288,24.647c16.975,13.689,43.259,19.713,64.069,9.854
		c14.786-8.763,24.11-23.546,25.738-39.975c-2.739-62.427-77.76-67.358-103.497-116.096c-5.478-13.69-5.478-30.12,0-44.355
		c10.951-21.356,34.495-29.573,58.045-28.478c16.43-1.096,31.763,13.69,47.109,1.097h3.271c3.835,14.236,8.212,29.569,7.666,43.259
		c-10.937-3.285-13.145-16.424-23.545-22.999c-16.98-12.594-41.621-15.878-60.79-5.473c-10.399,8.212-14.235,18.618-15.877,30.119
		c12.593,53.664,78.31,55.853,102.405,105.141c11.516,19.714,6.569,48.191-4.913,66.262c-19.183,26.285-51.495,27.927-79.968,23.546
		c-10.956,1.096-25.191-14.787-32.312,1.642h-4.927C825.342,578.471,822.589,560.945,822.038,545.612L822.038,545.612z"/>
	<path d="M1002.751,353.949c46.002,58.046,83.237,123.212,129.785,181.262c3.836-54.765,2.739-115,1.111-169.214
		c-2.753-9.309-25.207-1.098-14.801-12.048c15.879,0,32.858-1.097,48.191,1.097c-2.739,8.758-18.623,2.188-19.715,14.782
		l-2.724,221.235c-12.608,6.574-9.324-8.757-13.705-14.781c-41.621-59.693-82.142-121.575-125.951-179.07
		c-3.836,55.854-2.718,123.212-1.096,181.259c4.381,7.12,15.883,1.097,17.524,10.405c-15.331,3.285-36.693,3.285-50.929,0
		c1.642-8.763,18.616-2.739,19.714-15.333l1.097-197.692c-6.575-8.212-12.594-15.879-23-16.975v-3.831L1002.751,353.949
		L1002.751,353.949z"/>
	<path d="M751.944,358.877c-37.239-12.048-83.784-7.667-112.807,18.622c-42.717,38.331-45.452,105.686-28.477,156.616
		c14.787,33.95,49.834,59.688,86.537,60.785c41.076,3.284,77.745-10.406,101.295-43.265c23.545-34.495,25.737-85.426,14.782-125.951
		C805.063,397.213,780.987,367.639,751.944,358.877L751.944,358.877z M764.007,562.592c-19.183,21.356-48.752,26.284-76.683,19.715
		c-27.381-7.121-44.355-35.052-54.21-59.144c-13.124-53.118-7.666-115.55,38.331-149.5c16.43-12.048,40.525-13.146,60.239-8.764
		c36.689,8.218,56.403,47.646,60.799,81.596C797.942,489.759,791.372,531.375,764.007,562.592L764.007,562.592z"/>
	<path d="M1326.391,580.114l-67.906-219.044l-6.023-7.12l-3.831,2.188l-71.74,216.309l-8.764,10.952
		c-2.734,5.478-13.689-1.644-10.951,7.665l45.472,1.098c3.815-11.502-13.71-2.739-15.897-12.048
		c6.569-24.642,9.854-52.022,25.737-71.736c22.453,0,50.925-7.12,69.548,6.024c7.666,21.356,15.333,42.167,16.975,65.712
		c-2.739,9.309-17.505,1.642-19.714,10.95c18.618,4.383,40.521,1.644,60.785,2.739
		C1351.031,583.398,1329.674,588.33,1326.391,580.114L1326.391,580.114z M1212.487,495.784
		c10.404-32.312,20.806-65.717,32.308-96.382c11.502,31.763,21.902,64.62,29.573,97.475L1212.487,495.784L1212.487,495.784z"/>
	<path d="M1509.295,488.664c-10.399-17.526-29.022-24.096-47.094-28.477c3.836-3.285,8.218-4.382,12.599-6.57
		c20.826-9.859,30.664-31.217,29.568-54.215c-3.285-17.525-13.689-38.883-33.404-43.265c-38.332-9.854-85.426-5.473-113.903,19.715
		l12.594,7.666l3.836,179.075c-1.097,8.212-11.503,8.758-14.787,13.689c4.382,6.024,12.048,10.951,19.714,12.594
		c42.168,9.854,98.024,12.048,127.048-26.283C1519.155,542.879,1521.343,509.474,1509.295,488.664L1509.295,488.664z
		 M1475.892,568.616c-16.976,17.521-47.642,18.066-68.998,9.855l-9.838-10.951c-1.112-61.882-3.852-125.951-2.755-190.021
		c7.116-13.146,22.447-16.43,37.234-16.43c12.594,0.546,24.642,2.733,34.502,9.854c19.713,15.883,15.332,42.712,8.763,62.978
		c-13.145,21.357-38.338,22.999-61.867,25.188c-6.039,3.284,0.531,8.218,3.815,9.859c25.739-1.642,53.118-1.096,66.81,21.902
		C1495.626,513.85,1493.417,548.901,1475.892,568.616L1475.892,568.616z"/>
	<path d="M1551.456,575.186l2.193-189.475c0-8.764-10.956-4.383-13.145-10.952c20.261-21.355,54.215-24.646,84.88-22.453
		c21.903-0.546,41.07,8.212,54.762,26.284c8.763,14.24,12.593,33.404,7.119,50.38c-4.927,24.646-31.747,39.979-54.215,43.264
		c-2.738,0.546-6.022-0.546-7.666,2.738l76.668,106.237c5.474,6.024,17.521,0,18.618,9.854c-13.69,0-29.574,5.479-40.524,0
		l-84.335-119.928c3.835-12.048,24.096-2.188,33.408-8.763c12.044-4.376,25.733-13.139,30.666-25.732
		c8.763-19.169,7.667-46.549-8.217-61.882c-14.236-15.883-38.878-15.333-58.046-10.956c-5.458,2.739-12.048,6.024-14.787,12.048
		c-2.739,65.166-5.473,135.265-2.739,202.62c3.29,9.858,26.835,1.096,17.527,12.592c-20.811-0.545-42.714,2.194-61.882-2.188
		C1533.935,578.471,1550.91,588.876,1551.456,575.186L1551.456,575.186z"/>
	<path d="M1708.076,355.046l59.688,1.092c-4.381,7.666-20.26,4.381-21.341,17.526l1.627,175.238
		c3.285,14.236,15.898,25.187,28.477,32.308c20.28,9.309,46.544,3.831,65.166-4.927c13.14-9.313,22.448-21.907,23.546-37.24
		c0-58.596,5.492-113.903,0-171.949c-2.72-7.666-16.976-2.193-16.976-10.956c16.976,0,35.047-5.473,51.476,0
		c-1.096,10.406-17.525,0.552-19.714,13.69l-3.836,173.051c-1.642,17.521-14.235,32.308-29.568,42.161
		c-31.761,14.242-78.855,16.98-106.237-9.854c-13.144-10.952-15.332-26.835-16.975-42.168V367.094
		C1720.67,357.785,1697.12,366.543,1708.076,355.046L1708.076,355.046z"/>
	<path d="M1771.602,313.974c6.575,1.092,15.337,1.644,16.979,10.401c2.188,7.671-2.192,18.071-10.957,20.811
		c-7.665-0.546-16.423-2.739-18.616-10.951C1756.818,324.927,1762.843,315.618,1771.602,313.974z"/>
	<path d="M1829.668,313.974c8.217-2.192,15.863,3.285,18.603,10.401c0.546,8.217-1.098,15.884-8.764,19.713
		c-7.119,0.552-19.162,0-21.356-9.854C1815.412,324.927,1821.986,317.26,1829.668,313.974L1829.668,313.974z"/>
	<path d="M1970.383,356.137c23.004-7.115,50.931-8.212,72.837,1.098c6.019,2.192,9.309-3.831,13.691-6.024
		c9.309,10.405,12.594,27.38,15.878,42.166c-12.048,8.765-12.594-12.048-21.902-14.786c-17.525-17.521-45.452-24.096-67.905-13.69
		c-45.452,22.999-50.93,72.833-53.117,118.837c3.283,34.495,10.95,68.996,41.616,89.807c16.429,7.666,37.239,11.497,55.856,6.569
		c17.526-4.381,30.666-20.811,44.355-32.308c8.763,4.382-0.545,9.854-1.092,14.787c-25.191,29.023-65.166,37.781-101.294,26.283
		c-45.467-16.429-61.896-63.522-65.712-106.786C1903.595,431.165,1920.004,378.046,1970.383,356.137L1970.383,356.137z"/>
	<path d="M2104.006,575.186c2.188-68.451,0.546-141.834,1.091-208.092c-4.927-5.478-12.047-6.023-18.616-7.121v-4.927
		c19.713-1.643,42.167-1.643,61.881,0c-0.552,12.048-17.526,1.092-19.714,14.782c-1.643,29.573-1.643,61.882,0,91.455l83.783-90.358
		c3.836-12.594-13.145-7.667-13.145-15.879c16.979-1.643,36.694-1.643,54.215,0c-1.643,9.854-15.332,5.473-21.356,12.048
		l-79.952,84.33v3.836l100.213,121.022c4.932,8.758,16.979,6.024,20.811,13.689c-10.952,3.831-25.738,2.735-37.235,1.092
		c-38.882-42.713-70.098-87.068-107.333-129.78c-4.365,37.785-2.739,78.855-1.096,117.188c3.836,9.309,18.617-0.547,18.071,11.501
		h-62.973C2083.742,577.375,2101.813,589.423,2104.006,575.186L2104.006,575.186z"/>
</g>
</svg>
