# Blender v2.63 (sub 0) OBJ File: 'cone.blend'
# www.blender.org
mtllib Cone.mtl
o Cone
v 0.000000 -64.000000 -64.000000
v 0.000000 64.000000 0.000000
v 12.485781 -64.000000 -62.770256
v 24.491741 -64.000000 -59.128292
v 35.556496 -64.000000 -53.214054
v 45.254837 -64.000000 -45.254833
v 53.214054 -64.000000 -35.556492
v 59.128292 -64.000000 -24.491739
v 62.770256 -64.000000 -12.485783
v 64.000000 -64.000000 -0.000005
v 62.770260 -64.000000 12.485773
v 59.128292 -64.000000 24.491730
v 53.214058 -64.000000 35.556492
v 45.254833 -64.000000 45.254833
v 35.556492 -64.000000 53.214058
v 24.491730 -64.000000 59.128292
v 12.485765 -64.000000 62.770260
v -0.000021 -64.000000 64.000000
v -12.485806 -64.000000 62.770252
v -24.491768 -64.000000 59.128281
v -35.556526 -64.000000 53.214035
v -45.254864 -64.000000 45.254803
v -53.214081 -64.000000 35.556458
v -59.128311 -64.000000 24.491692
v -62.770267 -64.000000 12.485725
v -64.000000 -64.000000 -0.000062
v -62.770245 -64.000000 -12.485847
v -59.128262 -64.000000 -24.491806
v -53.214012 -64.000000 -35.556561
v -45.254776 -64.000000 -45.254894
v -35.556423 -64.000000 -53.214104
v -24.491653 -64.000000 -59.128326
v -12.485684 -64.000000 -62.770279
vn -0.330668 -0.503281 -0.798334
vn 0.000000 1.000000 0.000000
vn -0.168554 -0.503281 -0.847499
vn 0.000000 -0.503281 -0.864101
vn 0.168554 -0.503281 -0.847499
vn 0.330668 -0.503281 -0.798334
vn -0.480056 -0.503281 -0.718467
vn -0.611011 -0.503281 -0.611011
vn -0.718467 -0.503281 -0.480056
vn -0.798334 -0.503281 -0.330668
vn -0.847499 -0.503281 -0.168554
vn -0.864101 -0.503281 0.000000
vn -0.847499 -0.503281 0.168554
vn -0.798334 -0.503281 0.330668
vn -0.718467 -0.503281 0.480056
vn -0.611011 -0.503281 0.611011
vn -0.480056 -0.503281 0.718467
vn -0.330668 -0.503281 0.798334
vn -0.168554 -0.503281 0.847499
vn 0.000000 -0.503281 0.864101
vn 0.168554 -0.503281 0.847499
vn 0.330668 -0.503281 0.798334
vn 0.480056 -0.503281 0.718467
vn 0.611011 -0.503281 0.611011
vn 0.718467 -0.503281 0.480056
vn 0.798334 -0.503281 0.330668
vn 0.847499 -0.503281 0.168554
vn 0.864101 -0.503281 0.000000
vn 0.847499 -0.503281 -0.168554
vn 0.798334 -0.503281 -0.330668
vn 0.718467 -0.503281 -0.480056
vn 0.611011 -0.503281 -0.611011
vn 0.480056 -0.503281 -0.718467
usemtl Material.001
s 1
f 32//1 2//2 33//3
f 1//4 2//2 3//5
f 2//2 1//4 33//3
f 3//5 2//2 4//6
f 31//7 2//2 32//1
f 30//8 2//2 31//7
f 29//9 2//2 30//8
f 28//10 2//2 29//9
f 27//11 2//2 28//10
f 26//12 2//2 27//11
f 25//13 2//2 26//12
f 24//14 2//2 25//13
f 23//15 2//2 24//14
f 22//16 2//2 23//15
f 21//17 2//2 22//16
f 20//18 2//2 21//17
f 19//19 2//2 20//18
f 18//20 2//2 19//19
f 17//21 2//2 18//20
f 16//22 2//2 17//21
f 15//23 2//2 16//22
f 14//24 2//2 15//23
f 13//25 2//2 14//24
f 12//26 2//2 13//25
f 11//27 2//2 12//26
f 10//28 2//2 11//27
f 9//29 2//2 10//28
f 8//30 2//2 9//29
f 7//31 2//2 8//30
f 6//32 2//2 7//31
f 5//33 2//2 6//32
f 4//6 2//2 5//33
f 1//4 3//5 33//3
f 3//5 32//1 33//3
f 3//5 4//6 32//1
f 4//6 31//7 32//1
f 4//6 5//33 31//7
f 5//33 30//8 31//7
f 5//33 6//32 30//8
f 6//32 29//9 30//8
f 6//32 7//31 29//9
f 7//31 28//10 29//9
f 7//31 8//30 28//10
f 8//30 27//11 28//10
f 8//30 9//29 27//11
f 9//29 26//12 27//11
f 9//29 10//28 26//12
f 10//28 25//13 26//12
f 10//28 11//27 25//13
f 11//27 24//14 25//13
f 11//27 12//26 24//14
f 12//26 23//15 24//14
f 12//26 13//25 23//15
f 13//25 22//16 23//15
f 13//25 14//24 22//16
f 14//24 21//17 22//16
f 14//24 15//23 21//17
f 15//23 20//18 21//17
f 15//23 16//22 20//18
f 16//22 19//19 20//18
f 16//22 17//21 19//19
f 17//21 18//20 19//19
