# Blender v2.63 (sub 0) OBJ File: 'avz_lowpoly.blend'
# www.blender.org
mtllib AVZ.mtl
o Mesh_Mesh_avz
v 6.103245 -8.158990 -7.790571
v 9.910744 -8.158987 -11.598069
v 9.910744 15.841014 -11.598058
v 6.103245 15.841013 -7.790559
v 12.573486 -12.169000 12.470465
v 41.367847 -12.169000 12.462568
v 41.367847 11.831002 12.462580
v 12.573486 11.831002 12.470476
v 2.844723 -12.159008 43.623238
v 41.344723 -12.159008 43.623238
v 41.344723 -4.159009 43.623245
v 2.844723 -4.159009 43.623245
v -3.252338 -8.158985 -12.069551
v 0.865929 -8.158985 -12.069551
v 0.865929 15.841016 -12.069539
v -3.252338 15.841016 -12.069539
v -14.974358 -12.158992 -10.361311
v -43.818008 -12.158992 -10.361311
v -43.818008 11.841010 -10.361300
v -14.974358 11.841010 -10.361300
v -5.366524 -8.158987 -10.232450
v -4.605053 -8.158987 -10.883069
v -4.605053 15.841014 -10.883058
v -5.366524 15.841014 -10.232438
v 41.367847 -12.168989 -10.115458
v 41.367847 -12.168991 -10.315458
v 41.367847 11.831010 -10.315447
v 41.367847 11.831012 -10.115446
v -43.818008 -12.158990 -10.160501
v -43.818008 11.841012 -10.160490
v -43.818008 -12.158999 12.430395
v -14.974358 -12.158999 12.429186
v -14.974358 11.841002 12.429197
v -43.818008 11.841002 12.430407
v 11.418079 -12.169000 12.476706
v 11.418079 11.831002 12.476717
v -4.359024 -12.158980 -40.638779
v -4.359024 -8.158980 -40.638775
v 9.096737 -8.158980 -40.638775
v 9.096737 -12.158980 -40.638779
v 7.729542 -12.168996 8.362989
v 7.729542 11.831003 8.363001
v -14.974358 -12.158992 -10.160501
v -14.974358 11.841010 -10.160490
v 41.344723 -12.158999 12.261076
v 2.844723 -12.158999 12.261076
v 2.844723 -4.158998 12.261077
v 41.344723 -4.158998 12.261077
v 4.199871 -8.158987 -9.195798
v 4.199871 -8.158990 -7.790571
v 4.199871 15.841013 -7.790559
v 4.199871 15.841014 -9.195786
v 0.307972 -8.158983 -36.937191
v 0.307972 -12.158982 -36.937195
v 3.044144 -12.158982 -36.937195
v 3.044144 -8.158983 -36.937191
v 7.525620 -12.168992 -6.261904
v 7.525620 11.831007 -6.261892
v -5.366520 -8.158967 -41.490574
v -5.366524 -8.158987 -10.883069
v -5.366524 15.841014 -10.883058
v -5.366520 15.841032 -41.490555
v 9.956799 -8.158985 -12.740563
v 10.156796 -8.158985 -12.740563
v 10.156796 15.841016 -12.740552
v 9.956799 15.841016 -12.740552
v 9.096737 -8.158983 -34.436115
v 9.096737 -12.158982 -34.436119
v 12.573486 -12.168991 -10.115458
v 11.477039 -12.168991 -10.115458
v 11.477039 11.831010 -10.115446
v 12.573486 11.831010 -10.115446
v -13.888737 -12.158999 12.328783
v -10.021156 -12.158997 8.330988
v -10.021156 11.841003 8.330999
v -13.888737 11.841002 12.328794
v -10.371155 -12.158993 -6.268995
v -13.829613 -12.158992 -10.160501
v -13.829613 11.841010 -10.160490
v -10.371155 11.841007 -6.268984
v 3.044144 -12.158982 -34.436119
v 3.044144 -8.158983 -34.436115
v 10.156803 -8.158967 -41.490574
v 10.156803 15.841032 -41.490555
v 12.573486 -12.168991 -10.315458
v 12.573486 11.831010 -10.315447
v 0.307972 -8.158983 -34.571178
v 0.307972 -12.158982 -34.571182
v -4.359024 -12.158982 -34.571182
v -4.359024 -8.158983 -34.571178
v -3.285645 -12.158998 14.163523
v -6.619587 -12.158999 11.289770
v -6.619587 7.841002 11.289781
v -3.285645 7.841004 14.163533
v 2.923485 -12.158999 12.977041
v 2.923485 -12.158999 12.326422
v 2.923485 7.841002 12.326432
v 2.923485 7.841002 12.977052
v 2.185337 -12.158999 12.977041
v 0.832623 -12.158998 14.163523
v 0.832623 7.841004 14.163533
v 2.185337 7.841002 12.977052
v -6.619587 -12.158998 9.884542
v -6.619587 7.841003 9.884553
v 2.923485 -12.159008 43.584541
v 2.923485 7.840991 43.584549
v -8.522961 -12.158998 9.884542
v -12.330460 -12.158999 13.692041
v -12.330460 7.841002 13.692052
v -8.522961 7.841003 9.884553
v -12.576515 -12.159008 43.584541
v -12.576515 7.840991 43.584549
v -12.376514 -12.158998 14.834538
v -12.376514 7.841004 14.834548
v -12.576511 -12.158998 14.834538
v -12.576511 7.841004 14.834548
v 4.063488 11.841002 11.333578
v -6.619587 11.841002 11.289782
v -3.285645 11.841004 14.163534
v 0.832623 11.841004 14.163534
v 7.827297 -4.158997 8.271632
v 4.063488 -4.158997 8.271632
v 4.063488 -4.158998 11.333568
v 11.418079 -4.158998 12.250991
v -12.576515 7.840991 43.584549
v -12.376514 7.841004 14.834548
v -12.576511 7.841004 14.834548
v 2.863487 -4.158998 12.384662
v -6.619587 11.841003 6.310858
v 4.063488 11.841003 6.310858
v 1.292892 11.841009 3.480898
v -3.745911 11.841009 3.480898
v -3.285645 7.841004 14.163533
v 0.832623 7.841004 14.163533
v 2.923485 7.841002 12.977052
v 2.185337 7.841002 12.977052
v 2.923485 7.841002 12.326432
v -6.435963 19.841013 -9.398374
v 4.315971 19.841013 -9.398374
v 1.045399 19.841013 -12.297193
v -3.222980 19.841013 -12.297193
v -3.539993 19.841011 -1.545697
v 1.500122 19.841011 -1.545697
v 4.315971 19.841011 -4.375653
v -6.435963 19.841011 -4.419449
v 4.161629 15.841005 6.316588
v 9.178791 15.841005 6.316588
v 11.990051 15.841007 3.486632
v 1.311562 15.841007 3.442836
v 1.311562 15.841008 -1.447881
v 11.990051 15.841008 -1.503312
v 9.183113 15.841011 -4.375577
v 4.295021 15.841011 -4.402132
v -3.731274 15.841008 -1.559449
v -6.714733 15.841011 -4.378576
v -11.650623 15.841011 -4.378576
v -14.457561 15.841008 -1.532895
v -6.581341 15.841005 6.316588
v -3.731274 15.841007 3.442836
v -14.457561 15.841007 3.486632
v -11.646301 15.841005 6.316588
v -6.619587 7.841002 11.289781
v -6.619587 7.841003 9.884553
v -8.522961 7.841003 9.884553
v -12.330460 7.841002 13.692052
v 2.923485 7.840991 43.584549
v 4.063488 -4.158996 6.434543
v 7.827297 -4.158996 6.434543
v -6.714733 -12.158988 -4.378588
v -11.650623 -12.158988 -4.378588
v 11.990051 -12.158992 -1.503325
v 9.183113 -12.158988 -4.375589
v 1.500122 -12.158989 -1.545710
v 4.315971 -12.158991 -4.375666
v 1.311562 -12.158992 -1.447893
v -3.731274 -12.158992 -1.559462
v -3.222980 -12.158985 -12.297205
v -6.435963 -12.158987 -9.398386
v -3.745911 -12.158993 3.480886
v -6.619587 -12.158997 6.310846
v 0.832623 -12.158998 14.163523
v 4.063488 -12.158999 11.333567
v 9.178791 -12.158995 6.316576
v 11.990051 -12.158995 3.486620
v 1.311562 -12.158995 3.442823
v 4.161629 -12.158995 6.316576
v 4.315971 -12.158987 -9.398386
v 1.045399 -12.158985 -12.297205
v 4.063488 -12.158997 6.310846
v 1.292892 -12.158993 3.480886
v -14.457561 -12.158992 -1.532908
v -14.457561 -12.158995 3.486620
v 4.295021 -12.158988 -4.402143
v -11.646301 -12.158995 6.316576
v -6.435963 -12.158991 -4.419462
v -3.539993 -12.158989 -1.545710
v -6.581341 -12.158995 6.316576
v -3.731274 -12.158995 3.442823
v -6.619587 -12.158999 11.289770
v -3.285645 -12.158998 14.163523
vt 11.631186 -0.001086
vt 9.866280 -0.001077
vt 9.866321 5.999719
vt 11.631222 5.999713
vt 35.162411 0.000027
vt 47.866852 0.000080
vt 47.866779 5.996819
vt 35.162342 5.996766
vt 14.703059 -0.027928
vt 0.000020 -0.028006
vt 0.000000 2.000821
vt 14.703034 2.000898
vt 15.508183 -0.001098
vt 14.158343 -0.001096
vt 14.158366 5.999710
vt 15.508210 5.999701
vt 15.796394 -0.000043
vt 23.838858 -0.000077
vt 23.838884 6.002400
vt 15.796421 6.002458
vt 16.426231 -0.001101
vt 16.097950 -0.001101
vt 16.097982 5.999698
vt 16.426262 5.999696
vt 9.961649 0.000042
vt 10.049895 0.000041
vt 10.049931 5.996745
vt 9.961653 5.996747
vt 23.894852 -0.000077
vt 23.894878 6.002400
vt -0.000011 0.000014
vt 8.042497 -0.000016
vt 8.042525 6.002485
vt 0.000021 6.002512
vt 34.652611 0.000026
vt 34.652534 5.996758
vt 1.568827 -0.001264
vt 1.568997 0.999744
vt 5.051636 0.999277
vt 5.051520 -0.001844
vt 32.214821 0.000018
vt 32.214748 5.996745
vt 15.740400 -0.000043
vt 15.740427 6.002458
vt 41.382965 -0.027801
vt 26.680151 -0.027826
vt 26.680136 2.000986
vt 41.383007 2.000975
vt 12.715652 -0.001093
vt 12.255059 -0.001091
vt 12.255078 5.999715
vt 12.715669 5.999713
vt 53.359554 -0.028006
vt 53.359627 2.000735
vt 9.580245 0.999639
vt 9.580429 -0.001844
vt 8.871917 -0.001946
vt 8.871770 0.999504
vt 25.761505 0.000000
vt 25.761450 5.996713
vt 0.000000 0.000043
vt 0.000000 5.996747
vt 26.671635 -0.001101
vt 16.639484 -0.001099
vt 16.639490 5.999695
vt 26.671635 5.999691
vt 9.491499 -0.001074
vt 9.425947 -0.001073
vt 9.425956 5.999719
vt 9.491538 5.999719
vt 6.657214 0.999237
vt 6.657194 -0.002048
vt 22.842506 0.000009
vt 23.326281 0.000001
vt 23.326279 5.996711
vt 22.842545 5.996713
vt 8.346495 -0.000016
vt 9.897469 -0.000023
vt 9.897493 6.002479
vt 8.346520 6.002485
vt 13.969559 -0.000037
vt 15.421210 -0.000040
vt 15.421237 6.002459
vt 13.969584 6.002463
vt 8.224296 -0.002005
vt 8.224203 0.999390
vt 31.759666 -0.001105
vt 31.759672 5.999691
vt 22.754251 0.000013
vt 22.754282 5.996718
vt 10.192892 0.999755
vt 10.193095 -0.001738
vt -0.001506 -0.000986
vt -0.001334 1.000000
vt 11.401369 1.000000
vt 11.401576 -0.001505
vt 30.193857 -0.000098
vt 30.193884 6.002357
vt 0.002634 -0.001059
vt 0.002647 5.999732
vt 15.058189 0.000165
vt 16.782951 0.000175
vt 16.782923 5.002004
vt 15.058166 5.002006
vt 12.098818 0.000138
vt 12.353773 0.000142
vt 12.353751 5.002011
vt 12.098792 5.002016
vt 12.739348 0.000148
vt 13.444426 0.000155
vt 13.444403 5.002007
vt 12.739322 5.002007
vt 17.333597 0.000186
vt 17.333557 5.001997
vt 0.105085 0.000117
vt 0.105060 5.002000
vt 18.079441 0.000197
vt 20.189381 0.000204
vt 20.189358 5.001988
vt 18.079399 5.001991
vt 31.981369 0.000211
vt 38.055012 0.000210
vt 38.055012 5.001985
vt 31.981375 5.001985
vt 20.637413 0.000205
vt 20.637419 5.001985
vt 20.715769 0.000205
vt 20.715755 5.001981
vt 3.076162 -3.796160
vt -1.794963 -3.776191
vt -0.274796 -5.086530
vt 1.602996 -5.086530
vt -5.082497 6.004421
vt -5.109456 -4.249947
vt -3.345966 -2.427086
vt -3.505553 4.230023
vt 6.456498 5.983888
vt 4.654782 4.226790
vt 4.747761 -2.441679
vt 6.429620 -4.317398
vt 4.792340 -2.400014
vt 3.076162 -2.400014
vt 6.429620 -4.214471
vt -3.993240 -15.508932
vt -3.917268 -4.588046
vt -3.993238 -4.588046
vt 2.529002 -4.275423
vt -1.794963 -1.505969
vt 3.076162 -1.505969
vt 1.812870 -0.215597
vt -0.484658 -0.215597
vt -5.604463 6.004421
vt -18.756214 6.004421
vt -18.756214 -4.296281
vt -5.604463 -4.295731
vt -4.419930 -5.392490
vt -4.511129 -18.501541
vt 0.420767 0.146144
vt 0.113561 0.146144
vt -0.449422 -0.181774
vt 2.556357 -4.545537
vt 2.556357 -4.248871
vt 2.219790 -4.545537
vt -1.711236 5.656925
vt 3.191288 5.656925
vt 1.700021 6.978689
vt -0.246227 6.978689
vt -0.390769 2.076357
vt 1.907355 2.076357
vt 3.191288 3.366729
vt -1.711236 3.386704
vt 3.120913 -1.508583
vt 5.408576 -1.508583
vt 6.690413 -0.218214
vt 1.821379 -0.198244
vt 1.821379 2.031758
vt 6.690413 2.057035
vt 5.410546 3.366693
vt 3.181741 3.378798
vt -0.477984 2.082631
vt -1.838346 3.368059
vt -4.088947 3.368059
vt -5.368820 2.070525
vt -1.777526 -1.508583
vt -0.477984 -0.198244
vt -5.368820 -0.218214
vt -4.086984 -1.508583
vt 0.451392 0.537802
vt 0.451392 0.536678
vt 0.453374 0.537802
vt 0.456894 0.539852
vt 5.854518 20.289896
vt -0.259615 6.874888
vt 1.618185 6.874888
vt 5.763318 7.180850
vt 5.854511 7.180850
vt 6.956441 -4.314551
vt 6.956441 5.983888
vt -1.794963 -3.135456
vt -2.662838 -3.135456
vt -4.398933 -4.871549
vt 3.138350 5.564553
vt 3.138350 4.923812
vt 4.006228 4.923812
vt 5.742320 6.659908
vt 20.085720 5.983888
vt 20.085720 -4.310952
vt 20.085720 6.075082
vt 6.956441 6.075082
vt 2.556357 -18.501541
vt 3.076162 -1.562362
vt 4.792340 -1.562362
vt -18.756214 6.095981
vt -5.604463 6.095981
vt 2.520443 -4.219077
vt 2.520443 -18.519184
vt 20.075172 -18.519184
vt 20.075172 -4.219077
vt -1.223608 20.289896
vt -1.223608 6.333893
vt -0.001555 23.378328
vt -0.001553 0.011907
vt 11.849282 0.011907
vt 1.612458 22.472540
vt 11.696596 21.960278
vt 11.661432 22.832483
vt 7.301634 24.666426
vt 4.756429 22.472540
vt 0.579768 23.378328
vt -0.001555 23.875025
vt 11.849277 21.960278
vt 8.754710 25.739208
vt 7.301634 25.739208
vt 27.350365 6.004783
vt 25.373415 6.004780
vt 25.373392 0.000014
vt 27.350338 0.000005
vt 7.268188 6.004715
vt 5.659680 6.004718
vt 5.659692 0.000036
vt 7.268204 0.000037
vt 12.884254 6.990009
vt 11.227138 6.989709
vt 11.231710 0.002032
vt 12.888820 0.002333
vt 2.020245 6.004720
vt 0.000000 6.004720
vt 0.000014 0.000034
vt 2.020261 0.000034
vt 5.556438 6.988680
vt 3.760186 6.988354
vt 3.764760 0.000681
vt 5.561012 0.001007
vt 2.003740 0.000001
vt 3.606581 0.000001
vt 3.606574 5.000720
vt 2.003741 5.000721
vt 8.971128 0.000008
vt 10.678009 0.000009
vt 10.677990 5.000722
vt 8.971111 5.000722
vt 10.864397 6.004719
vt 9.266747 6.004714
vt 9.266764 0.000040
vt 10.864422 0.000041
vt 14.494919 6.004741
vt 12.873862 6.004732
vt 12.873891 0.000041
vt 14.494943 0.000037
vt 9.142264 6.989330
vt 7.328189 6.989001
vt 7.332764 0.001328
vt 9.146834 0.001655
vt 12.674089 0.000012
vt 14.247999 0.000014
vt 14.247977 5.000725
vt 12.674071 5.000722
vt 28.994398 6.004779
vt 28.994370 0.000000
vt 23.772478 6.004774
vt 21.762041 6.004768
vt 21.762039 0.000027
vt 23.772469 0.000023
vt 3.701882 6.004718
vt 3.701894 0.000036
vt 20.164371 6.004766
vt 20.164371 0.000031
vt 1.693493 6.987979
vt 0.000000 6.987670
vt 0.004585 0.000000
vt 1.698073 0.000307
vt 18.135738 6.004761
vt 18.135754 0.000036
vt 16.514675 6.004750
vt 16.514694 0.000039
vt 5.585266 0.000001
vt 7.334491 0.000006
vt 7.334470 5.000721
vt 5.585252 5.000720
vt 0.001263 0.000001
vt 0.001270 5.000724
vt 14.976346 6.990388
vt 14.980907 0.002710
vn 0.707107 -0.000000 0.707107
vn 0.000274 -0.000000 1.000000
vn 0.000000 -0.000001 1.000000
vn 0.000000 -0.000000 1.000000
vn 0.000000 0.000000 -1.000000
vn 0.649599 -0.000000 0.760277
vn 1.000000 0.000000 -0.000000
vn -1.000000 0.000000 0.000000
vn 0.000042 -0.000000 1.000000
vn 0.005401 -0.000000 0.999985
vn 0.000000 0.000001 -1.000000
vn -0.744535 -0.000000 0.667583
vn -0.999903 -0.000000 0.013942
vn 0.718715 -0.000000 0.695305
vn 0.092091 -0.000000 0.995751
vn -0.698186 0.000000 -0.715917
vn 0.747472 0.000000 -0.664293
vn -0.652896 -0.000000 0.757448
vn 0.659403 -0.000000 0.751790
vn 0.999713 0.000000 -0.023966
vn 0.999188 -0.000000 0.040278
vn 0.652896 0.000000 -0.757448
vn -0.659403 0.000000 -0.751789
vn -0.661229 0.000000 -0.750184
vn -0.707107 0.000000 -0.707107
vn -0.999188 0.000000 -0.040278
vn 0.000000 1.000000 -0.000001
vn 0.000000 1.000000 0.000000
vn 0.000001 1.000000 0.000000
vn 0.000000 1.000000 0.000001
vn 0.000000 1.000000 0.000002
vn 0.000000 1.000000 -0.000010
vn -0.000001 1.000000 -0.000002
vn 0.000001 1.000000 0.000001
vn 0.000000 1.000000 -0.000009
vn -0.000001 1.000000 0.000001
vn 0.000001 1.000000 0.000002
vn -0.000000 -1.000000 -0.000001
vn 0.000001 -1.000000 -0.000000
vn -0.000001 -1.000000 -0.000002
vn 0.000000 -1.000000 0.000000
vn 0.000000 -1.000000 -0.000002
vn -0.000001 -1.000000 -0.000001
vn 0.715193 0.000000 -0.698927
vn 0.708871 -0.000000 0.705338
vn 0.022119 0.000000 -0.999755
vn -0.669875 0.000000 -0.742474
vn -0.701666 0.000000 -0.712506
vn 0.658893 -0.000000 0.752236
vn 0.709446 -0.000000 0.704759
vn 0.709446 -0.000000 0.704760
vn -0.710027 -0.000000 0.704175
vn 0.663295 0.000000 -0.748358
vn 0.714562 0.000000 -0.699572
vn 0.686806 0.000000 -0.726841
vn -0.703620 0.000000 -0.710577
vn -0.709446 -0.000000 0.704759
vn -0.704379 -0.000000 0.709824
vn -0.711936 0.000000 -0.702244
vn 0.005432 0.000000 -0.999985
vn 0.710027 -0.000000 0.704175
usemtl _fensterfront.png_fensterfront.png.002
s off
f 1/1/1 2/2/1 3/3/1
f 1/1/1 3/3/1 4/4/1
f 5/5/2 6/6/2 7/7/2
f 5/5/2 7/7/2 8/8/2
f 9/9/3 10/10/3 11/11/3
f 9/9/3 11/11/3 12/12/3
f 13/13/4 14/14/4 15/15/4
f 13/13/4 15/15/4 16/16/4
f 17/17/5 18/18/5 19/19/5
f 17/17/5 19/19/5 20/20/5
f 21/21/6 22/22/6 23/23/6
f 21/21/6 23/23/6 24/24/6
f 25/25/7 26/26/7 27/27/7
f 25/25/7 27/27/7 28/28/7
f 18/18/8 29/29/8 30/30/8
f 18/18/8 30/30/8 19/19/8
f 31/31/9 32/32/9 33/33/9
f 31/31/9 33/33/9 34/34/9
f 35/35/10 5/5/10 8/8/10
f 35/35/10 8/8/10 36/36/10
f 37/37/11 38/38/11 39/39/11
f 37/37/11 39/39/11 40/40/11
f 41/41/12 35/35/12 36/36/12
f 41/41/12 36/36/12 42/42/12
f 43/43/7 17/17/7 20/20/7
f 43/43/7 20/20/7 44/44/7
f 45/45/5 46/46/5 47/47/5
f 45/45/5 47/47/5 48/48/5
f 49/49/8 50/50/8 51/51/8
f 49/49/8 51/51/8 52/52/8
f 10/53/7 45/45/7 48/48/7
f 10/53/7 48/48/7 11/54/7
f 53/55/3 54/56/3 55/57/3
f 53/55/3 55/57/3 56/58/3
f 57/59/13 41/41/13 42/42/13
f 57/59/13 42/42/13 58/60/13
f 6/61/7 25/25/7 28/28/7
f 6/61/7 28/28/7 7/62/7
f 59/63/8 60/64/8 61/65/8
f 59/63/8 61/65/8 62/66/8
f 63/67/4 64/68/4 65/69/4
f 63/67/4 65/69/4 66/70/4
f 67/71/7 68/72/7 40/40/7
f 67/71/7 40/40/7 39/39/7
f 69/73/5 70/74/5 71/75/5
f 69/73/5 71/75/5 72/76/5
f 73/77/14 74/78/14 75/79/14
f 73/77/14 75/79/14 76/80/14
f 32/32/15 73/77/15 76/80/15
f 32/32/15 76/80/15 33/33/15
f 70/74/16 57/59/16 58/60/16
f 70/74/16 58/60/16 71/75/16
f 77/81/17 78/82/17 79/83/17
f 77/81/17 79/83/17 80/84/17
f 14/14/18 49/49/18 52/52/18
f 14/14/18 52/52/18 15/15/18
f 56/58/8 55/57/8 81/85/8
f 56/58/8 81/85/8 82/86/8
f 83/87/11 59/63/11 62/66/11
f 83/87/11 62/66/11 84/88/11
f 26/26/5 85/89/5 86/90/5
f 26/26/5 86/90/5 27/27/5
f 46/46/8 9/9/8 12/12/8
f 46/46/8 12/12/8 47/47/8
f 78/82/5 43/43/5 44/44/5
f 78/82/5 44/44/5 79/83/5
f 87/91/7 88/92/7 54/56/7
f 87/91/7 54/56/7 53/55/7
f 22/22/19 13/13/19 16/16/19
f 22/22/19 16/16/19 23/23/19
f 74/78/20 77/81/20 80/84/20
f 74/78/20 80/84/20 75/79/20
f 2/2/21 63/67/21 66/70/21
f 2/2/21 66/70/21 3/3/21
f 85/89/8 69/73/8 72/76/8
f 85/89/8 72/76/8 86/90/8
f 60/64/8 21/21/8 24/24/8
f 60/64/8 24/24/8 61/65/8
f 68/72/3 67/71/3 82/86/3
f 68/72/3 82/86/3 81/85/3
f 50/50/4 1/1/4 4/4/4
f 50/50/4 4/4/4 51/51/4
f 37/37/8 89/93/8 90/94/8
f 37/37/8 90/94/8 38/38/8
f 88/92/3 87/91/3 90/95/3
f 88/92/3 90/95/3 89/96/3
f 29/29/8 31/97/8 34/98/8
f 29/29/8 34/98/8 30/30/8
f 64/68/7 83/99/7 84/100/7
f 64/68/7 84/100/7 65/69/7
f 91/101/22 92/102/22 93/103/22
f 91/101/22 93/103/22 94/104/22
f 95/105/7 96/106/7 97/107/7
f 95/105/7 97/107/7 98/108/7
f 99/109/23 100/110/23 101/111/23
f 99/109/23 101/111/23 102/112/23
f 92/102/7 103/113/7 104/114/7
f 92/102/7 104/114/7 93/103/7
f 96/106/24 99/109/24 102/112/24
f 96/106/24 102/112/24 97/107/24
f 105/115/7 95/105/7 98/108/7
f 105/115/7 98/108/7 106/116/7
f 107/117/25 108/118/25 109/119/25
f 107/117/25 109/119/25 110/120/25
f 111/121/4 105/122/4 106/123/4
f 111/121/4 106/123/4 112/124/4
f 108/118/26 113/125/26 114/126/26
f 108/118/26 114/126/26 109/119/26
f 113/125/11 115/127/11 116/128/11
f 113/125/11 116/128/11 114/126/11
f 103/113/11 107/117/11 110/120/11
f 103/113/11 110/120/11 104/114/11
f 100/110/11 91/101/11 94/104/11
f 100/110/11 94/104/11 101/111/11
f 115/127/8 111/121/8 112/124/8
f 115/127/8 112/124/8 116/128/8
usemtl _gravel.jpg
f 117/129/27 118/130/27 119/131/27
f 117/129/27 119/131/27 120/132/27
f 79/133/28 76/134/28 75/135/28
f 79/133/29 75/135/29 80/136/29
f 71/137/28 58/138/28 42/139/28
f 71/137/28 42/139/28 36/140/28
f 121/141/28 122/142/28 123/129/28
f 121/141/28 123/129/28 124/143/28
f 125/144/28 126/145/28 127/146/28
f 128/147/30 124/143/30 123/129/30
f 129/148/31 130/149/31 131/150/31
f 129/148/31 131/150/31 132/151/31
f 44/152/28 30/153/28 34/154/28
f 44/152/28 34/154/28 33/155/28
f 126/156/28 125/157/28 133/131/28
f 125/157/28 134/132/28 133/131/28
f 135/158/27 136/159/27 134/160/27
f 135/161/28 137/162/28 136/163/28
f 138/164/28 139/165/28 140/166/28
f 138/164/28 140/166/28 141/167/28
f 142/168/28 143/169/28 144/170/28
f 142/168/28 144/170/28 145/171/28
f 146/172/30 147/173/30 148/174/30
f 146/172/30 148/174/30 149/175/30
f 150/176/30 151/177/30 152/178/30
f 150/176/30 152/178/30 153/179/30
f 154/180/30 155/181/30 156/182/30
f 154/180/30 156/182/30 157/183/30
f 158/184/30 159/185/30 160/186/30
f 158/184/30 160/186/30 161/187/30
f 61/188/28 24/189/28 23/190/28
f 61/188/31 23/190/31 16/191/31
f 84/192/30 16/193/30 15/194/30
f 66/195/30 84/192/30 15/194/30
f 84/192/30 66/195/30 65/196/30
f 36/140/28 8/197/28 72/198/28
f 36/140/28 72/198/28 71/137/28
f 162/130/28 163/199/28 164/200/28
f 162/130/28 164/200/28 165/201/28
f 154/180/28 159/185/28 149/175/28
f 154/180/28 149/175/28 150/176/28
f 139/165/28 138/164/28 145/171/28
f 139/165/28 145/171/28 144/170/28
f 52/202/30 51/203/30 4/204/30
f 52/202/28 4/204/28 3/205/28
f 33/155/28 76/134/28 79/133/28
f 33/155/28 79/133/28 44/152/28
f 157/183/28 160/186/28 159/185/28
f 157/183/28 159/185/28 154/180/28
f 28/206/28 72/198/28 8/197/28
f 28/206/28 8/197/28 7/207/28
f 28/206/32 27/208/32 86/209/32
f 28/206/28 86/209/28 72/198/28
f 130/149/28 129/148/28 118/130/28
f 130/149/28 118/130/28 117/129/28
f 162/130/33 165/201/33 126/156/33
f 162/130/28 126/156/28 133/131/28
f 135/161/34 134/132/34 125/157/34
f 135/161/28 125/157/28 166/210/28
f 167/211/30 122/142/30 121/141/30
f 167/211/30 121/141/30 168/212/30
f 19/213/35 30/153/35 44/152/35
f 19/213/28 44/152/28 20/214/28
f 47/215/28 12/216/28 11/217/28
f 47/215/28 11/217/28 48/218/28
f 62/219/36 61/220/36 16/193/36
f 62/219/30 16/193/30 84/192/30
f 151/177/28 150/176/28 149/175/28
f 151/177/28 149/175/28 148/174/28
f 52/202/37 3/205/37 66/195/37
f 52/202/30 66/195/30 15/194/30
usemtl _kachel_grau.png_kachel_grau.png.002
f 60/221/38 59/222/38 83/223/38
f 60/221/39 83/223/39 13/224/39
f 63/225/40 2/226/40 49/227/40
f 63/225/38 49/227/38 14/228/38
f 22/229/41 21/230/41 60/221/41
f 13/224/42 22/229/42 60/221/42
f 14/228/38 13/224/38 83/223/38
f 14/228/38 83/223/38 63/225/38
f 64/231/38 63/225/38 83/223/38
f 1/232/42 50/233/42 49/227/42
f 1/232/43 49/227/43 2/226/43
usemtl _wandsegment.png_wandsegment.png.002
f 169/234/5 170/235/5 156/236/5
f 169/234/5 156/236/5 155/237/5
f 171/238/44 172/239/44 152/240/44
f 171/238/44 152/240/44 151/241/44
f 173/242/45 174/243/45 144/244/45
f 173/242/45 144/244/45 143/245/45
f 175/246/46 176/247/46 154/248/46
f 175/246/46 154/248/46 150/249/46
f 177/250/47 178/251/47 138/252/47
f 177/250/47 138/252/47 141/253/47
f 179/254/48 180/255/48 129/256/48
f 179/254/48 129/256/48 132/257/48
f 181/258/49 182/259/49 117/260/49
f 181/258/49 117/260/49 120/261/49
f 183/262/50 184/263/50 148/264/50
f 183/262/51 148/264/51 147/265/51
f 185/266/52 186/267/52 146/268/52
f 185/266/52 146/268/52 149/269/52
f 187/270/53 188/271/53 140/272/53
f 187/270/53 140/272/53 139/273/53
f 184/263/7 171/238/7 151/241/7
f 184/263/7 151/241/7 148/264/7
f 189/274/54 190/275/54 131/276/54
f 189/274/54 131/276/54 130/277/54
f 176/278/55 169/234/55 155/237/55
f 176/278/55 155/237/55 154/279/55
f 186/267/4 183/262/4 147/265/4
f 186/267/4 147/265/4 146/268/4
f 191/280/8 192/281/8 160/282/8
f 191/280/8 160/282/8 157/283/8
f 193/284/56 175/246/56 150/249/56
f 193/284/56 150/249/56 153/285/56
f 192/281/57 194/286/57 161/287/57
f 192/281/57 161/287/57 160/282/57
f 174/243/7 187/270/7 139/273/7
f 174/243/7 139/273/7 144/244/7
f 188/271/5 177/250/5 141/253/5
f 188/271/5 141/253/5 140/272/5
f 195/288/58 196/289/58 142/290/58
f 195/288/58 142/290/58 145/291/58
f 194/286/4 197/292/4 158/293/4
f 194/286/4 158/293/4 161/287/4
f 198/294/4 185/266/4 149/269/4
f 198/294/4 149/269/4 159/295/4
f 199/296/18 200/297/18 119/298/18
f 199/296/18 119/298/18 118/299/18
f 182/259/7 189/274/7 130/277/7
f 182/259/7 130/277/7 117/260/7
f 170/235/59 191/280/59 157/283/59
f 170/235/59 157/283/59 156/236/59
f 172/239/60 193/284/60 153/285/60
f 172/239/60 153/285/60 152/240/60
f 190/300/5 179/254/5 132/257/5
f 190/300/5 132/257/5 131/301/5
f 178/251/8 195/288/8 145/291/8
f 178/251/8 145/291/8 138/252/8
f 200/297/4 181/258/4 120/261/4
f 200/297/4 120/261/4 119/298/4
f 196/302/4 173/242/4 143/245/4
f 196/302/4 143/245/4 142/303/4
f 180/255/8 199/296/8 118/299/8
f 180/255/8 118/299/8 129/256/8
f 197/292/61 198/294/61 159/295/61
f 197/292/61 159/295/61 158/293/61
