# Blender v2.63 (sub 0) OBJ File: 'house.blend'
# www.blender.org
mtllib Schornstein.mtl
o Schornstein
v 0.000000 -37.890778 -4.265167
v 0.000000 37.890778 -1.833599
v 0.832093 -37.890778 -4.183213
v 0.357718 37.890778 -1.798367
v 1.632209 -37.890778 -3.940501
v 0.701688 37.890778 -1.694024
v 2.369600 -37.890778 -3.546357
v 1.018693 37.890778 -1.524582
v 3.015929 -37.890778 -3.015929
v 1.296550 37.890778 -1.296550
v 3.546357 -37.890778 -2.369600
v 1.524581 37.890778 -1.018693
v 3.940501 -37.890778 -1.632209
v 1.694024 37.890778 -0.701688
v 4.183213 -37.890778 -0.832093
v 1.798366 37.890778 -0.357718
v 4.265167 -37.890778 -0.000000
v 1.833598 37.890778 -0.000001
v 4.183213 -37.890778 0.832092
v 1.798367 37.890778 0.357716
v 3.940501 -37.890778 1.632208
v 1.694024 37.890778 0.701687
v 3.546357 -37.890778 2.369600
v 1.524582 37.890778 1.018692
v 3.015929 -37.890778 3.015929
v 1.296550 37.890778 1.296549
v 2.369600 -37.890778 3.546357
v 1.018693 37.890778 1.524580
v 1.632208 -37.890778 3.940501
v 0.701688 37.890778 1.694023
v 0.832092 -37.890778 4.183213
v 0.357717 37.890778 1.798365
v -0.000001 -37.890778 4.265167
v -0.000000 37.890778 1.833597
v -0.832095 -37.890778 4.183213
v -0.357718 37.890778 1.798365
v -1.632211 -37.890778 3.940500
v -0.701688 37.890778 1.694023
v -2.369602 -37.890778 3.546356
v -1.018693 37.890778 1.524580
v -3.015931 -37.890778 3.015927
v -1.296550 37.890778 1.296548
v -3.546359 -37.890778 2.369597
v -1.524582 37.890778 1.018691
v -3.940502 -37.890778 1.632206
v -1.694024 37.890778 0.701686
v -4.183214 -37.890778 0.832089
v -1.798366 37.890778 0.357715
v -4.265167 -37.890778 -0.000004
v -1.833598 37.890778 -0.000002
v -4.183212 -37.890778 -0.832097
v -1.798365 37.890778 -0.357720
v -3.940499 -37.890778 -1.632213
v -1.694023 37.890778 -0.701690
v -3.546354 -37.890778 -2.369604
v -1.524580 37.890778 -1.018695
v -3.015925 -37.890778 -3.015933
v -1.296548 37.890778 -1.296552
v -2.369595 -37.890778 -3.546360
v -1.018690 37.890778 -1.524583
v -1.632203 -37.890778 -3.940503
v -0.701685 37.890778 -1.694026
v -0.832086 -37.890778 -4.183215
v -0.357714 37.890778 -1.798367
vt 1.000000 -18.445391
vt 1.000000 19.445391
vt 0.968750 19.445391
vt 0.968750 -18.445391
vt 0.937500 19.445391
vt 0.937500 -18.445391
vt 0.906250 19.445391
vt 0.906250 -18.445391
vt 0.875000 19.445391
vt 0.875000 -18.445391
vt 0.843750 19.445391
vt 0.843750 -18.445391
vt 0.812500 19.445391
vt 0.812500 -18.445391
vt 0.781250 19.445391
vt 0.781250 -18.445391
vt 0.750000 19.445391
vt 0.750000 -18.445391
vt 0.718750 19.445391
vt 0.718750 -18.445391
vt 0.687500 19.445391
vt 0.687500 -18.445391
vt 0.656250 19.445391
vt 0.656250 -18.445391
vt 0.625000 19.445391
vt 0.625000 -18.445391
vt 0.593750 19.445391
vt 0.593750 -18.445391
vt 0.562500 19.445391
vt 0.562500 -18.445391
vt 0.531250 19.445391
vt 0.531250 -18.445391
vt 0.500000 19.445391
vt 0.500000 -18.445391
vt 0.468750 19.445391
vt 0.468750 -18.445391
vt 0.437500 19.445391
vt 0.437500 -18.445391
vt 0.406250 19.445391
vt 0.406250 -18.445391
vt 0.375000 19.445391
vt 0.375000 -18.445391
vt 0.343750 19.445391
vt 0.343750 -18.445391
vt 0.312500 19.445391
vt 0.312500 -18.445391
vt 0.281250 19.445391
vt 0.281250 -18.445391
vt 0.249999 19.445391
vt 0.250000 -18.445391
vt 0.218749 19.445391
vt 0.218750 -18.445391
vt 0.187499 19.445391
vt 0.187500 -18.445391
vt 0.156249 19.445391
vt 0.156250 -18.445391
vt 0.124999 19.445391
vt 0.125000 -18.445391
vt 0.093749 19.445391
vt 0.093750 -18.445391
vt 0.062499 19.445391
vt 0.062500 -18.445391
vt 0.486659 17.351368
vt 0.488424 17.281456
vt 0.490631 17.220158
vt 0.493196 17.169827
vt 0.485418 17.427204
vt 0.496032 17.132399
vt 0.484770 17.506054
vt 0.499049 17.109310
vt 0.484774 17.584883
vt 0.502156 17.101450
vt 0.485468 17.660666
vt 0.505265 17.109121
vt 0.486864 17.730486
vt 0.508283 17.132027
vt 0.488940 17.791664
vt 0.511121 17.169287
vt 0.491636 17.841848
vt 0.513691 17.219471
vt 0.494845 17.879108
vt 0.515903 17.280647
vt 0.498425 17.902014
vt 0.517673 17.350470
vt 0.502199 17.909683
vt 0.518921 17.426252
vt 0.505971 17.901825
vt 0.519576 17.505081
vt 0.509547 17.878736
vt 0.519581 17.583931
vt 0.512752 17.841309
vt 0.518895 17.659767
vt 0.515440 17.790977
vt 0.517508 17.729679
vt 1.031250 -18.445391
vt 1.031249 19.445391
vt 0.031249 19.445391
vt 0.031250 -18.445391
vt 1.040182 -17.026876
vt 1.042462 -16.864256
vt 1.035989 -17.169464
vt 1.029836 -17.286541
vt 1.042984 -16.687849
vt 1.021861 -17.373604
vt 1.041958 -16.504438
vt 1.012451 -17.427307
vt 1.039607 -16.321070
vt 1.002239 -17.445591
vt 1.036146 -16.144793
vt 0.992022 -17.427750
vt 1.031775 -15.982380
vt 0.982597 -17.374468
vt 1.026677 -15.840073
vt 0.974602 -17.287796
vt 1.021016 -15.723339
vt 0.968425 -17.171064
vt 1.014945 -15.636667
vt 0.964208 -17.028757
vt 1.008606 -15.583385
vt 0.961906 -16.866343
vt 1.002136 -15.565544
vt 0.961364 -16.690065
vt 0.995666 -15.583826
vt 0.962372 -16.506699
vt 0.989330 -15.637531
vt 0.964708 -16.323286
vt 0.983263 -15.724594
vt 0.968157 -16.146881
vt 0.977608 -15.841669
vt 0.972517 -15.984259
vn 0.000000 -0.673940 -0.738762
vn 0.000000 0.697378 -0.716697
vn 0.139836 0.697378 -0.702902
vn 0.144108 -0.673940 -0.724570
vn 0.274331 0.697348 -0.662099
vn 0.282693 -0.673940 -0.682516
vn 0.398267 0.697348 -0.595843
vn 0.410382 -0.673940 -0.614277
vn 0.506912 0.697348 -0.506668
vn 0.522355 -0.673940 -0.522385
vn 0.596057 0.697317 -0.398022
vn 0.614215 -0.673940 -0.410443
vn 0.662282 0.697287 -0.274087
vn 0.682485 -0.673971 -0.282723
vn 0.703055 0.697287 -0.139592
vn 0.724540 -0.673971 -0.144169
vn 0.716788 0.697256 0.000244
vn 0.738731 -0.673971 -0.000031
vn 0.702994 0.697226 0.140080
vn 0.724540 -0.673971 0.144047
vn 0.662191 0.697195 0.274514
vn 0.682516 -0.673971 0.282662
vn 0.595935 0.697195 0.398450
vn 0.614246 -0.673971 0.410382
vn 0.506790 0.697165 0.507035
vn 0.522385 -0.673971 0.522324
vn 0.398144 0.697134 0.596149
vn 0.410413 -0.673971 0.614215
vn 0.274239 0.697134 0.662374
vn 0.282693 -0.673971 0.682485
vn 0.139805 0.697134 0.703146
vn 0.144108 -0.674001 0.724509
vn 0.000000 0.697134 0.716910
vn 0.000000 -0.673971 0.738701
vn -0.139805 0.697134 0.703146
vn -0.144108 -0.673971 0.724509
vn -0.274270 0.697134 0.662374
vn -0.282693 -0.673971 0.682485
vn -0.398175 0.697134 0.596149
vn -0.410443 -0.673971 0.614215
vn -0.506790 0.697165 0.507035
vn -0.522385 -0.673971 0.522324
vn -0.595935 0.697165 0.398419
vn -0.614246 -0.673971 0.410382
vn -0.662191 0.697195 0.274514
vn -0.682516 -0.673971 0.282662
vn -0.703024 0.697226 0.140080
vn -0.724540 -0.673971 0.144047
vn -0.716819 0.697226 0.000214
vn -0.738731 -0.673971 -0.000031
vn -0.703055 0.697256 -0.139592
vn -0.724540 -0.673940 -0.144169
vn -0.662282 0.697287 -0.274056
vn -0.682485 -0.673940 -0.282723
vn -0.596057 0.697317 -0.398022
vn -0.614215 -0.673940 -0.410443
vn -0.506912 0.697317 -0.506668
vn -0.522355 -0.673940 -0.522385
vn -0.398297 0.697348 -0.595843
vn -0.410413 -0.673940 -0.614277
vn -0.274361 0.697348 -0.662099
vn -0.282693 -0.673940 -0.682516
vn -0.139866 0.697378 -0.702902
vn -0.144108 -0.673940 -0.724570
usemtl brown_bricks_brown_bricks.png
s 1
f 1/1/1 2/2/2 4/3/3
f 1/1/1 4/3/3 3/4/4
f 3/4/4 4/3/3 6/5/5
f 3/4/4 6/5/5 5/6/6
f 5/6/6 6/5/5 8/7/7
f 5/6/6 8/7/7 7/8/8
f 7/8/8 8/7/7 10/9/9
f 7/8/8 10/9/9 9/10/10
f 9/10/10 10/9/9 12/11/11
f 9/10/10 12/11/11 11/12/12
f 11/12/12 12/11/11 14/13/13
f 11/12/12 14/13/13 13/14/14
f 13/14/14 14/13/13 16/15/15
f 13/14/14 16/15/15 15/16/16
f 15/16/16 16/15/15 18/17/17
f 15/16/16 18/17/17 17/18/18
f 17/18/18 18/17/17 20/19/19
f 17/18/18 20/19/19 19/20/20
f 19/20/20 20/19/19 22/21/21
f 19/20/20 22/21/21 21/22/22
f 21/22/22 22/21/21 24/23/23
f 21/22/22 24/23/23 23/24/24
f 23/24/24 24/23/23 26/25/25
f 23/24/24 26/25/25 25/26/26
f 25/26/26 26/25/25 28/27/27
f 25/26/26 28/27/27 27/28/28
f 27/28/28 28/27/27 30/29/29
f 27/28/28 30/29/29 29/30/30
f 29/30/30 30/29/29 32/31/31
f 29/30/30 32/31/31 31/32/32
f 31/32/32 32/31/31 34/33/33
f 31/32/32 34/33/33 33/34/34
f 33/34/34 34/33/33 36/35/35
f 33/34/34 36/35/35 35/36/36
f 35/36/36 36/35/35 38/37/37
f 35/36/36 38/37/37 37/38/38
f 37/38/38 38/37/37 40/39/39
f 37/38/38 40/39/39 39/40/40
f 39/40/40 40/39/39 42/41/41
f 39/40/40 42/41/41 41/42/42
f 41/42/42 42/41/41 44/43/43
f 41/42/42 44/43/43 43/44/44
f 43/44/44 44/43/43 46/45/45
f 43/44/44 46/45/45 45/46/46
f 45/46/46 46/45/45 48/47/47
f 45/46/46 48/47/47 47/48/48
f 47/48/48 48/47/47 50/49/49
f 47/48/48 50/49/49 49/50/50
f 49/50/50 50/49/49 52/51/51
f 49/50/50 52/51/51 51/52/52
f 51/52/52 52/51/51 54/53/53
f 51/52/52 54/53/53 53/54/54
f 53/54/54 54/53/53 56/55/55
f 53/54/54 56/55/55 55/56/56
f 55/56/56 56/55/55 58/57/57
f 55/56/56 58/57/57 57/58/58
f 57/58/58 58/57/57 60/59/59
f 57/58/58 60/59/59 59/60/60
f 59/60/60 60/59/59 62/61/61
f 59/60/60 62/61/61 61/62/62
f 4/63/3 2/64/2 64/65/63
f 4/63/3 64/65/63 62/66/61
f 4/63/3 62/66/61 6/67/5
f 62/66/61 60/68/59 6/67/5
f 60/68/59 8/69/7 6/67/5
f 60/68/59 58/70/57 8/69/7
f 58/70/57 10/71/9 8/69/7
f 58/70/57 56/72/55 10/71/9
f 56/72/55 12/73/11 10/71/9
f 56/72/55 54/74/53 12/73/11
f 54/74/53 14/75/13 12/73/11
f 54/74/53 52/76/51 14/75/13
f 52/76/51 16/77/15 14/75/13
f 52/76/51 50/78/49 16/77/15
f 50/78/49 18/79/17 16/77/15
f 50/78/49 48/80/47 18/79/17
f 48/80/47 20/81/19 18/79/17
f 48/80/47 46/82/45 20/81/19
f 46/82/45 22/83/21 20/81/19
f 46/82/45 44/84/43 22/83/21
f 44/84/43 24/85/23 22/83/21
f 44/84/43 42/86/41 24/85/23
f 42/86/41 26/87/25 24/85/23
f 42/86/41 40/88/39 26/87/25
f 40/88/39 28/89/27 26/87/25
f 40/88/39 38/90/37 28/89/27
f 38/90/37 30/91/29 28/89/27
f 38/90/37 36/92/35 30/91/29
f 36/92/35 32/93/31 30/91/29
f 36/92/35 34/94/33 32/93/31
f 2/2/2 1/1/1 63/95/64
f 2/2/2 63/95/64 64/96/63
f 61/62/62 62/61/61 64/97/63
f 61/62/62 64/97/63 63/98/64
f 1/99/1 3/100/4 63/101/64
f 3/100/4 61/102/62 63/101/64
f 3/100/4 5/103/6 61/102/62
f 5/103/6 59/104/60 61/102/62
f 5/103/6 7/105/8 59/104/60
f 7/105/8 57/106/58 59/104/60
f 7/105/8 9/107/10 57/106/58
f 9/107/10 55/108/56 57/106/58
f 9/107/10 11/109/12 55/108/56
f 11/109/12 53/110/54 55/108/56
f 11/109/12 13/111/14 53/110/54
f 13/111/14 51/112/52 53/110/54
f 13/111/14 15/113/16 51/112/52
f 15/113/16 49/114/50 51/112/52
f 15/113/16 17/115/18 49/114/50
f 17/115/18 47/116/48 49/114/50
f 17/115/18 19/117/20 47/116/48
f 19/117/20 45/118/46 47/116/48
f 19/117/20 21/119/22 45/118/46
f 21/119/22 43/120/44 45/118/46
f 21/119/22 23/121/24 43/120/44
f 23/121/24 41/122/42 43/120/44
f 23/121/24 25/123/26 41/122/42
f 25/123/26 39/124/40 41/122/42
f 25/123/26 27/125/28 39/124/40
f 27/125/28 37/126/38 39/124/40
f 27/125/28 29/127/30 37/126/38
f 29/127/30 35/128/36 37/126/38
f 29/127/30 31/129/32 35/128/36
f 31/129/32 33/130/34 35/128/36
