# Blender v2.63 (sub 0) OBJ File: 'richt_gizmo.blend'
# www.blender.org
o Cube.005
v 15.000000 15.000000 15.000000
v 15.000000 15.000000 17.000000
v 17.000000 15.000000 17.000000
v 17.000000 15.000000 15.000000
v 15.000000 17.000000 15.000000
v 15.000000 17.000000 17.000000
v 17.000000 17.000000 17.000000
v 17.000000 17.000000 15.000000
v 2.000000 0.000000 2.000000
v 2.000000 0.000000 0.000000
v -0.000000 0.000000 0.000000
v 0.000000 0.000000 2.000000
v 2.000000 2.000000 2.000000
v 1.999999 2.000000 -0.000001
v -0.000000 2.000000 0.000000
v 0.000000 2.000000 2.000000
v 6.000000 0.000000 2.000000
v 6.000000 0.000000 0.000000
v 6.000000 2.000000 2.000000
v 5.999999 2.000000 -0.000001
v 2.000000 0.000000 13.000000
v 0.000000 0.000000 13.000000
v 2.000000 2.000000 12.999999
v 0.000000 2.000000 13.000000
v 2.000000 9.000000 2.000000
v 1.999999 9.000000 -0.000001
v -0.000000 9.000000 0.000000
v 0.000000 9.000000 2.000000
vt 0.237303 0.620111
vt 0.332458 0.619819
vt 0.332749 0.714974
vt 0.237595 0.715266
vt 0.332458 0.810713
vt 0.237303 0.810421
vt 0.332749 0.715558
vt 0.096030 0.715266
vt 0.095739 0.620111
vt 0.190893 0.619819
vt 0.191185 0.714974
vt 0.237303 0.811004
vt 0.237011 0.906159
vt 0.141856 0.905867
vt 0.142148 0.810713
vt 0.191185 0.715558
vt 0.190893 0.810713
vt 0.095739 0.810420
vt 0.333333 0.810420
vt 0.428488 0.810712
vt 0.428196 0.905867
vt 0.333041 0.905575
vt 0.618797 0.095739
vt 0.619089 0.000584
vt 0.714244 0.000876
vt 0.713952 0.096030
vt 0.903532 0.000292
vt 0.998686 0.000000
vt 0.999708 0.333041
vt 0.904553 0.333333
vt 0.428488 0.095155
vt 0.428780 0.000000
vt 0.904845 0.428488
vt 1.000000 0.428196
vt 0.428488 0.618505
vt 0.333333 0.618797
vt 0.333041 0.523643
vt 0.428196 0.523351
vt 0.331436 0.000292
vt 0.426590 0.000000
vt 0.095447 0.810420
vt 0.095739 0.905575
vt 0.000584 0.905867
vt 0.000292 0.810712
vt 0.714536 0.429072
vt 0.714244 0.333917
vt 0.095155 0.810420
vt 0.000000 0.810128
vt 0.000584 0.619819
vt 0.428488 0.810128
vt 0.332749 0.620111
vt 0.427904 0.619819
vt 0.237595 0.810713
vt 0.332749 0.811004
vt 0.332458 0.906159
vt 0.237303 0.905867
vt 0.712346 0.619381
vt 0.617192 0.619089
vt 0.812610 0.429072
vt 0.907765 0.429364
vt 0.906159 0.952714
vt 0.811004 0.952422
vt 0.811004 0.952423
vt 0.715850 0.952714
vt 0.714244 0.429364
vt 0.809399 0.429072
vt 0.428488 0.906159
vt 0.428196 1.001314
vt 0.333041 1.001022
vt 0.333333 0.905867
vt 0.000292 0.619819
vt 0.000000 0.524664
vt 0.524664 0.952423
vt 0.429510 0.952715
vt 0.428488 0.619673
vt 0.523643 0.619381
vt 0.714244 0.952423
vt 0.619089 0.952715
vt 0.618068 0.619673
vt 0.713222 0.619381
vn 1.000000 0.000000 0.000000
vn 0.000000 0.000000 -1.000000
vn -1.000000 0.000000 0.000000
vn 0.000000 0.000000 1.000000
vn 0.000000 1.000000 0.000000
vn 0.000000 -1.000000 0.000000
vn -1.000000 0.000000 0.000001
s off
f 2/1/1 1/2/1 5/3/1
f 2/1/1 5/3/1 6/4/1
f 6/5/2 7/6/2 3/4/2
f 6/5/2 3/4/2 2/7/2
f 7/8/3 8/9/3 4/10/3
f 7/8/3 4/10/3 3/11/3
f 1/12/4 4/13/4 8/14/4
f 1/12/4 8/14/4 5/15/4
f 1/16/5 2/17/5 3/18/5
f 1/16/5 3/18/5 4/8/5
f 8/19/6 7/20/6 6/21/6
f 8/19/6 6/21/6 5/22/6
f 9/23/5 10/24/5 11/25/5
f 9/23/5 11/25/5 12/26/5
f 26/27/4 27/28/4 15/29/4
f 26/27/4 15/29/4 14/30/4
f 17/31/5 18/32/5 10/24/5
f 17/31/5 10/24/5 9/23/5
f 10/33/4 14/30/4 15/29/4
f 10/33/4 15/29/4 11/34/4
f 11/35/1 15/36/1 16/37/1
f 11/35/1 16/37/1 12/38/1
f 12/38/1 16/37/1 24/39/1
f 12/38/1 24/39/1 22/40/1
f 17/41/3 19/42/3 20/43/3
f 17/41/3 20/43/3 18/44/3
f 18/45/4 20/46/4 14/30/4
f 18/45/4 14/30/4 10/33/4
f 13/47/6 14/48/6 20/49/6
f 13/47/6 20/49/6 19/9/6
f 9/50/2 13/19/2 19/51/2
f 9/50/2 19/51/2 17/52/2
f 23/53/2 21/54/2 22/55/2
f 23/53/2 22/55/2 24/56/2
f 9/23/5 12/26/5 22/57/5
f 9/23/5 22/57/5 21/58/5
f 23/59/6 24/60/6 16/61/6
f 23/59/6 16/61/6 13/62/6
f 21/63/3 23/64/3 13/65/3
f 21/63/3 13/65/3 9/66/3
f 25/67/6 28/68/6 27/69/6
f 25/67/6 27/69/6 26/70/6
f 27/71/1 28/72/1 16/37/1
f 27/71/1 16/37/1 15/36/1
f 25/73/7 26/74/7 14/75/7
f 25/73/7 14/75/7 13/76/7
f 13/77/2 16/78/2 28/79/2
f 13/77/2 28/79/2 25/80/2
