# Blender v2.63 (sub 0) OBJ File: 'landhaus_skaliert.blend'
# www.blender.org
mtllib Boden.mtl
o Boden
v 0.000017 -7.826469 0.000013
v 0.000017 -7.826469 -64.017929
v 64.017960 -7.826469 -64.017929
v 64.017960 -7.826469 0.000013
v 0.000017 -6.581736 0.000013
v 0.000017 -6.581736 -64.017929
v 64.017960 -6.581736 -64.017929
v 64.017960 -6.581736 0.000013
v 23.108496 -6.581736 -64.017929
v 23.108496 -7.826469 -64.017929
v 23.108496 -6.581736 0.000013
v 23.108496 -7.826469 0.000013
v 36.348061 -7.826469 -19.164778
v 36.348061 -6.581736 -19.164778
v 0.000017 -6.581736 -19.164778
v 64.017960 -7.826469 -19.164778
v 0.000017 -6.581736 -35.512814
v 0.000017 -7.826469 -35.512814
v 64.017960 -6.581736 -35.512814
v 64.017960 -7.826469 -35.512814
v 23.108496 -7.826469 -35.512814
v 23.108496 -6.581736 -35.512814
v 36.348061 -6.581736 -35.512814
v 36.348061 -7.826469 -35.512814
v 36.348061 -6.581736 0.000013
v 36.348061 -7.826469 -64.017929
v 36.348061 -7.826469 0.000013
v 36.348061 -6.581736 -64.017929
v 23.108496 -6.581736 -19.164778
v 23.108496 -7.826469 -19.164778
v 64.017960 -6.581736 -19.164778
v 0.000017 -7.826469 -19.164778
vt 0.360969 0.554733
vt 0.360969 1.000000
vt 0.000000 1.000000
vt 0.000000 0.554733
vt 0.567779 0.554733
vt 0.567779 1.000000
vt 1.000000 0.554733
vt 1.000000 1.000000
vt 1.000000 0.299366
vt 0.567779 0.299366
vt 0.360969 0.299366
vt 0.000000 0.299366
vt 1.000000 0.000000
vt 0.567779 0.000000
vt 0.360969 0.000000
vt 0.000000 0.000000
vt -5.093191 1.158553
vt -5.093191 6.142791
vt 1.262416 6.142791
vt 6.100614 6.142791
vt 6.100614 -1.699969
vt 6.100614 -5.051013
vt -5.093191 -5.051013
vt -1.052577 -5.051013
vt 1.262416 1.158553
vt 6.100614 1.158553
vt -1.052577 6.142791
vt 1.262416 -5.051013
vt -1.052577 1.158553
vt -5.093191 -1.699969
vt -1.052577 -1.699969
vt 1.262416 -1.699969
vt 2.391797 -1.952908
vt 2.391797 2.807007
vt -1.463050 2.807007
vt -1.463050 -1.952908
vn -0.000000 1.000000 0.000000
vn -1.000000 0.000000 0.000000
vn 0.000000 0.000000 -1.000000
vn 1.000000 -0.000000 0.000000
vn 0.000000 0.000000 1.000000
vn -0.000000 -1.000000 0.000000
usemtl Gras_painted
s off
f 22/1/1 9/2/1 6/3/1
f 22/1/1 6/3/1 17/4/1
f 23/5/1 28/6/1 9/2/1
f 23/5/1 9/2/1 22/1/1
f 19/7/1 7/8/1 28/6/1
f 19/7/1 28/6/1 23/5/1
f 31/9/1 19/7/1 23/5/1
f 31/9/1 23/5/1 14/10/1
f 29/11/1 22/1/1 17/4/1
f 29/11/1 17/4/1 15/12/1
f 8/13/1 31/9/1 14/10/1
f 8/13/1 14/10/1 25/14/1
f 11/15/1 29/11/1 15/12/1
f 11/15/1 15/12/1 5/16/1
f 25/14/1 14/10/1 29/11/1
f 25/14/1 29/11/1 11/15/1
usemtl Gras_Grass0126_2_S.jpg
f 17/17/2 6/18/2 2/18/2
f 17/17/2 2/18/2 18/17/2
f 28/19/3 7/20/3 3/20/3
f 28/19/3 3/20/3 26/19/3
f 31/21/4 8/22/4 4/22/4
f 31/21/4 4/22/4 16/21/4
f 1/23/5 12/24/5 11/24/5
f 1/23/5 11/24/5 5/23/5
f 24/25/6 26/19/6 3/20/6
f 24/25/6 3/20/6 20/26/6
f 6/18/3 9/27/3 10/27/3
f 6/18/3 10/27/3 2/18/3
f 25/28/5 11/24/5 12/24/5
f 25/28/5 12/24/5 27/28/5
f 18/17/6 2/18/6 10/27/6
f 18/17/6 10/27/6 21/29/6
f 15/30/2 17/17/2 18/17/2
f 15/30/2 18/17/2 32/30/2
f 7/20/4 19/26/4 20/26/4
f 7/20/4 20/26/4 3/20/4
f 21/29/6 10/27/6 26/19/6
f 21/29/6 26/19/6 24/25/6
f 8/22/5 25/28/5 27/28/5
f 8/22/5 27/28/5 4/22/5
f 9/27/3 28/19/3 26/19/3
f 9/27/3 26/19/3 10/27/3
f 30/31/6 21/29/6 24/25/6
f 30/31/6 24/25/6 13/32/6
f 32/30/6 18/17/6 21/29/6
f 32/30/6 21/29/6 30/31/6
f 13/32/6 24/25/6 20/26/6
f 13/32/6 20/26/6 16/21/6
f 32/30/2 1/23/2 5/23/2
f 32/30/2 5/23/2 15/30/2
f 27/28/6 13/32/6 16/21/6
f 27/28/6 16/21/6 4/22/6
f 19/26/4 31/21/4 16/21/4
f 19/26/4 16/21/4 20/26/4
f 12/24/6 30/31/6 13/32/6
f 12/24/6 13/32/6 27/28/6
f 1/23/6 32/30/6 30/31/6
f 1/23/6 30/31/6 12/24/6
usemtl Gravel_SandPebbles0065_5_S.jpg
f 14/33/1 23/34/1 22/35/1
f 14/33/1 22/35/1 29/36/1
